<svg xmlns="http://www.w3.org/2000/svg" viewBox="0 0 100 100" width="512" height="512">
    <defs>
        <clipPath id="shape-clip"><path d="M 30,10 H 70 A 20,20 0 0 1 90,30 V 70 A 20,20 0 0 1 70,90 H 30 A 20,20 0 0 1 10,70 V 30 A 20,20 0 0 1 30,10 Z" /></clipPath>
        <filter id="outer-shadow">
            <feDropShadow dx="0" dy="2" stdDeviation="4" flood-opacity="0.3"/>
        </filter>
        
        
        
            <filter id="glow" x="-50%" y="-50%" width="200%" height="200%">
                <feFlood flood-color="white" result="flood" />
                <feComposite in="flood" in2="SourceGraphic" operator="out" result="mask" />
                <feGaussianBlur in="mask" stdDeviation="4" result="blurred" />
                <feComposite in="blurred" in2="SourceGraphic" operator="atop" />
            </filter>
            <linearGradient id="base-grad" x1="0%" y1="0%" x2="100%" y2="100%">
                <stop offset="0%" stop-color="#ffffff" />
                <stop offset="100%" stop-color="#f8fafc" />
            </linearGradient>
        
        <linearGradient id="glass-shine" x1="0%" y1="0%" x2="100%" y2="100%">
            <stop offset="0%" stop-color="#ffffff88" />
            <stop offset="45%" stop-color="#ffffff00" />
            <stop offset="55%" stop-color="#ffffff00" />
            <stop offset="100%" stop-color="#ffffff44" />
        </linearGradient>
    </defs>
    <g filter="url(#outer-shadow)">
        <g clip-path="url(#shape-clip)">
            <rect x="10" y="10" width="80" height="80" rx="25" fill="url(#base-grad)" filter="url(#glow)" />
            
            
            
            
            <rect width="100" height="100" fill="white" opacity="0.1" />
            <rect width="100" height="100" fill="url(#glass-shine)" opacity="0.2" />
            
        </g>
    </g>
    
    
        <text x="50" y="57"
            text-anchor="middle" dominant-baseline="middle"
            font-family="'Inter', sans-serif" font-weight="900" font-size="15"
            fill="#1a1a1a" style="filter: drop-shadow(0 2px 4px rgba(0,0,0,0.2))"
        >Access</text>
    
        <text x="50" y="38"
            text-anchor="middle" dominant-baseline="middle"
            font-size="17" fill="#000000"
            style="filter: drop-shadow(0 2px 4px rgba(0,0,0,0.2))"
        >🔑</text>
</svg>